<mxfile host="app.diagrams.net" modified="2023-04-15T19:43:54.922Z" agent="Mozilla/5.0 (Windows NT 10.0; Win64; x64) AppleWebKit/537.36 (KHTML, like Gecko) Chrome/112.0.0.0 Safari/537.36" version="21.1.8" etag="v1WtTFJpFm4_f7kDRA_g" type="github">
  <diagram name="PÃ¡gina-1" id="npPxZQlyI82I6rFb3yVp">
    <mxGraphModel>
      <root>
        <mxCell id="0" />
        <mxCell id="1" parent="0" />
      </root>
    </mxGraphModel>
  </diagram>
</mxfile>
